<svg width="25" height="25" viewBox="0 0 25 25" fill="none" xmlns="http://www.w3.org/2000/svg">
<g id="Icon/Information">
<g id="search">
<path id="Oval 8" fill-rule="evenodd" clip-rule="evenodd" d="M0 10.4166C0 16.1697 4.6637 20.8334 10.4167 20.8334C16.1696 20.8334 20.8333 16.1697 20.8333 10.4166C20.8333 4.6637 16.1696 0 10.4167 0C4.6637 0 0 4.6637 0 10.4166ZM18.75 10.4167C18.75 15.019 15.019 18.75 10.4167 18.75C5.8143 18.75 2.08334 15.019 2.08334 10.4167C2.08334 5.81433 5.8143 2.08337 10.4167 2.08337C15.019 2.08337 18.75 5.81433 18.75 10.4167Z" transform="translate(2.08334 2.08337)" fill="#222222"/>
</g>
<path id="i" fill-rule="evenodd" clip-rule="evenodd" d="M1.21875 2.4375C0.5625 2.4375 0 1.89375 0 1.21875C0 0.54375 0.5625 0 1.21875 0C1.89375 0 2.4375 0.54375 2.4375 1.21875C2.4375 1.89375 1.89375 2.4375 1.21875 2.4375ZM2.21249 12.6H0.243744V3.5437H2.21249V12.6Z" transform="translate(11.4479 6.15002)" fill="#222222"/>
</g>
</svg>
